# xmcd CD database file
#
# Track frame offsets:
#	150
#	14552
#	42720
#	69577
#	99962
#	125245
#	149275
#	179377
#
# Disc length: 2549 seconds
#
# Revision: 0
# Processed by: cddbd v1.5.1PL0 Copyright (c) Steve Scherf et al.
# Submitted via: CDex 1.50beta10
#
DISCID=7709f308
DTITLE=STOMU YAMASHTA - GO TOO
DYEAR=1977
DGENRE=Jazz
TTITLE0=Prelude
TTITLE1=Seen You Before
TTITLE2=Madness
TTITLE3=Mysteries Of Love
TTITLE4=Wheels Of Fortune
TTITLE5=Beauty
TTITLE6=You And Me
TTITLE7=Ecliptic
EXTD=YEAR: 1977
EXTT0=
EXTT1=
EXTT2=
EXTT3=
EXTT4=
EXTT5=
EXTT6=
EXTT7=
PLAYORDER=
